{"title":"The.Last.Airbender.2010.XvID.CAM.V2-MAGNET","uid":5721001,"size":1502629413,"categoryP":"video","categoryS":"movies","magnet":"?xt=urn:btih:69824db2263ed2af99c5f235c6cb1391b354119b&amp;dn=The.Last.Airbender.2010.XvID.CAM.V2-MAGNET&amp;tr=udp%3A%2F%2Ftracker.openbittorrent.com%3A80&amp;tr=udp%3A%2F%2Fopen.demonii.com%3A1337&amp;tr=udp%3A%2F%2Ftracker.coppersurfer.tk%3A6969&amp;tr=udp%3A%2F%2Fexodus.desync.com%3A6969","seeders":0,"leechers":1,"uploader":"TvTeam","files":5,"time":1280292208,"description":". \n  &lt;a href=&quot;\nhttp://www.torrentday.com/&quot; rel=&quot;nofollow&quot; target=&quot;_NEW&quot;&gt;\nhttp://www.torrentday.com/&lt;/a&gt;        :     The Hottest Private Tracker On The Net!!!\n\n\n               www . TorrentDay . Com \n(((((((((((((= Enjoy No RAR releases =))))))))))))))))))))\n\n\n...................................NFO:....................................\n\n.................................................................................\n................................................................................\n................................................................................\n................................................................................\n................................................................................\n................................................................................\n............................................ MMMMMMMMMMMMM......................\n........................................MMM.............. MMM...................\n.....................................MM......................MM ................\n...................................MM..........................M,...............\n.................................M: ............................MM..............\n...............................M ...........MMMMMMM..............MM.............\n                             M8.        MMMMMMMMMMMMM .          NM             \n                           ?M.        MMMMMMMMMMMMMMMMM          .MM            \n                          M.       +MMMMMMMMM       .~MM.         MM~           \n                        IM       .MMMMMMM7            ,MM        .MMM           \n                       M:       DMMMMMM.               MM        DMMM.          \n                      M.      .MMMMMMM                  M        MMMMZ          \n. .  . .. .  . .. .  M .. .  ?MMMMMM?. .. .  . .. .  . .M .  . ..MMMM$ .. .  . .\n                   OI      .MMMMMMM                     M        MMMMZ          \n                 .M       ,MMMMMM,                     MM       ,MMMM           \n                .M.      ,M.MMMM                       M        MMMMM           \n                MNMI.   MM MM+M.                       M       .MMMMM           \n...............M....MMMIM.$MOM....................... M....... MMMMMM...........\n............. M ......MMM7MMI....................... MD...... MMMMMM. ..........\n............ M?......O?M.MM.........................=M...... MMMMMMM M M........\n.............M...... M  MM .........................M.......MMMMMMM   M. .M ....\n............M.......M,M M..........................M.......8MMMMMM .7.MM,.M ....\n...........M ......M MMM.........................MM.......MMMMMMM ...M..MN .....\n...........M..... MZ MMM........................MM.......MMMMMMM................\n..........M,.....MM+MZM .......................M .......MMMMMMM ................\n......... ,......M.M M .......................M ...... MMMMMMM .................\n.........M .....M.M M .......................MNMM ....MMMMMMM...................\n........ MM.... MM.M.......................M..... MMMMMMMMM~....................\n......... NMMMMMMMIM..................... M........MMMMMMM .....................\n...........MMMMMMMM.....................M ...... MMMMOMMM.......................\n........... MMMMMMM...................~M........MM.MMMM ........................\n................MMM................. M,......,MMM.MMMM .........................\n...................................MM.......MMM.  MM ...........................\n................................. M ......MMMM,M M: ............................\n............................... M.......MM IM.MMM...............................\n............................. MMM. .. MMMM.M7MM ................................\n...............................MMMMMMM~ , M8M,..................................\n................................MMMMM: M IM.....................................\n................................MMMMMZM.M ......................................\n................................. 7MMMM.........................................\n....................................,,..........................................\n                                                                                \n                      MAGNET GRoUP PROUDLY PRESENTS :\n\nGeneral\nGeneral\nComplete name                    : The.Last.Airbender.2010.XvID.CAM.V2-MAGNET.avi\nFormat                           : AVI\nFormat/Info                      : Audio Video Interleave\nFile size                        : 1.34 GiB\nDuration                         : 1h 34mn\nOverall bit rate                 : 2 026 Kbps\n\nVideo\nID                               : 0\nFormat                           : MPEG-4 Visual\nFormat profile                   : Advanced Simple@L5\nFormat settings, BVOP            : Yes\nFormat settings, QPel            : No\nFormat settings, GMC             : No warppoints\nFormat settings, Matrix          : Default (H.263)\nCodec ID                         : XVID\nCodec ID/Hint                    : XviD\nDuration                         : 1h 34mn\nBit rate                         : 1 889 Kbps\nWidth                            : 704 pixels\nHeight                           : 304 pixels\nDisplay aspect ratio             : 2.35:1\nFrame rate                       : 23.976 fps\nColor space                      : YUV\nChroma subsampling               : 4:2:0\nBit depth                        : 8 bits\nScan type                        : Interlaced\nScan order                       : Bottom Field First\nBits/(Pixel*Frame)               : 0.368\nStream size                      : 1.25 GiB (93%)\nWriting library                  : XviD 1.2.1 (UTC 2008-12-04)\n\nAudio\nID                               : 1\nFormat                           : MPEG Audio\nFormat version                   : Version 1\nFormat profile                   : Layer 3\nCodec ID                         : 55\nCodec ID/Hint                    : MP3\nDuration                         : 1h 34mn\nBit rate mode                    : Constant\nBit rate                         : 128 Kbps\nChannel(s)                       : 2 channels\nSampling rate                    : 44.1 KHz\nStream size                      : 86.7 MiB (6%)\nAlignment                        : Aligned on interleaves\nInterleave, duration             : 42 ms (1.00 video frame)","torrent":{"xt":"urn:btih:69824db2263ed2af99c5f235c6cb1391b354119b","amp;dn":"The.Last.Airbender.2010.XvID.CAM.V2-MAGNET","amp;tr":["udp%3A%2F%2Ftracker.openbittorrent.com%3A80","udp%3A%2F%2Fopen.demonii.com%3A1337","udp%3A%2F%2Ftracker.coppersurfer.tk%3A6969","udp%3A%2F%2Fexodus.desync.com%3A6969"],"infoHash":"69824db2263ed2af99c5f235c6cb1391b354119b","infoHashBuffer":{"type":"Buffer","data":[105,130,77,178,38,62,210,175,153,197,242,53,198,203,19,145,179,84,17,155]},"announce":[],"urlList":[]}}